<svg id="Line-Expand" fill="rgb(230, 30, 77)" enable-background="new 0 0 64 64" height="512" viewBox="0 0 64 64" width="512" xmlns="http://www.w3.org/2000/svg"><path d="m26 7h2c0-1.654 1.346-3 3-3v-2c-1.641 0-3.088.806-4 2.031-.912-1.225-2.359-2.031-4-2.031v2c1.654 0 3 1.346 3 3z"/><path d="m27.28 33.158c-1.146 1.188-2.666 1.842-4.28 1.842s-3.134-.654-4.28-1.842l-1.439 1.389c1.526 1.581 3.557 2.453 5.719 2.453s4.193-.872 5.72-2.454z"/><path d="m32 50c-1.614 0-3.134-.654-4.28-1.842l-1.439 1.389c1.526 1.581 3.557 2.453 5.719 2.453s4.193-.872 5.72-2.454l-1.439-1.389c-1.147 1.189-2.667 1.843-4.281 1.843z"/><path d="m46.72 34.546-1.439-1.389c-1.147 1.189-2.667 1.843-4.281 1.843s-3.134-.654-4.28-1.842l-1.439 1.389c1.526 1.581 3.557 2.453 5.719 2.453s4.193-.872 5.72-2.454z"/><path d="m59 22h-3.485l-9.701-13.581c-.376-.526-1.252-.526-1.628 0l-2.325 3.254-4.021-6.216c-.185-.285-.501-.457-.84-.457s-.655.172-.839.457l-10.705 16.543h-7.456v-4.007c.27-.205.521-.437.747-.697.657.452 1.442.704 2.253.704 2.206 0 4-1.794 4-4 0-1.564-.92-2.938-2.262-3.588.172-.448.262-.926.262-1.412 0-2.247-1.854-4.058-4.126-3.998-.444-1.724-2.013-3.002-3.874-3.002s-3.43 1.278-3.874 3.002c-2.241-.064-4.126 1.751-4.126 3.998 0 .486.09.964.262 1.412-1.342.65-2.262 2.024-2.262 3.588 0 2.206 1.794 4 4 4 .811 0 1.596-.252 2.253-.704.226.259.477.492.747.697v4.007h-7v2h3v12.813c0 12.184 8.712 22.543 20.716 24.631l3.112.541c.057.01.115.015.172.015s.115-.005.171-.015l3.112-.541c12.005-2.088 20.717-12.446 20.717-24.631v-12.813h3zm-14-11.279 8.057 11.279h-16.114zm-8-2.88 3.611 5.583-6.126 8.576h-6.647zm-25.492 6.919c-.029-.002-.057-.003-.085-.003-.318 0-.62.152-.809.412-.385.528-.973.831-1.614.831-1.103 0-2-.897-2-2 0-1.04.819-1.91 1.864-1.982.383-.026.718-.27.86-.626s.068-.764-.191-1.047c-.344-.375-.533-.852-.533-1.345 0-1.103.897-2 2-2 .216 0 .437.042.678.129.317.116.669.063.939-.139s.42-.525.399-.862c0-.025-.013-.103-.016-.128 0-1.103.897-2 2-2s2 .897 2 1.971c-.003.025-.015.132-.017.157-.021.336.129.66.399.862s.623.255.939.139c.241-.087.463-.129.679-.129 1.103 0 2 .897 2 2 0 .493-.189.97-.533 1.345-.259.283-.334.69-.191 1.047s.477.6.86.626c1.045.072 1.864.942 1.864 1.982 0 1.103-.897 2-2 2-.641 0-1.229-.303-1.613-.832-.206-.283-.545-.439-.895-.409-.349.03-.657.241-.812.555-.511 1.04-1.538 1.686-2.68 1.686s-2.169-.646-2.681-1.685c-.154-.315-.462-.525-.811-.555zm2.492 4.136c.325.066.659.104 1 .104s.675-.037 1-.104v3.104h-2zm40 17.917c0 11.209-8.016 20.739-19.059 22.66l-2.941.512-2.941-.511c-11.043-1.921-19.059-11.451-19.059-22.661v-12.813h44z"/><path d="m50 26h2v2h-2z"/><path d="m46 26h2v2h-2z"/><path d="m42 26h2v2h-2z"/></svg>